<svg width="99" height="22" fill="none" xmlns="http://www.w3.org/2000/svg"><path fill-rule="evenodd" clip-rule="evenodd" d="M14.088 15.693c0 3.44-2.74 5.935-7.092 5.935A9.482 9.482 0 0 1 .35 18.646l1.456-1.61c1.362 1.298 2.965 2.558 5.16 2.558 2.438 0 5.067-1.367 5.067-3.822 0-2.04-1.62-3.37-5.026-4.418-3.881-1.186-5.853-2.796-5.853-5.822C1.155 2.537 3.69.079 7.302.079c2.697 0 4.385 1.15 6.027 2.62L11.9 4.286C10.46 3.01 9.087 2.145 7.403 2.145c-2.09 0-4.152 1.347-4.152 3.286 0 1.757 1.01 2.876 4.575 3.967 3.265 1.006 6.263 2.564 6.263 6.293v.001ZM31.7 2.063a1.708 1.708 0 1 0 3.417 0 1.708 1.708 0 0 0-3.417 0ZM39.31.706h2.058V21.29H39.31V.706Zm8.92 0h-2.058V21.29h2.058V.706Zm4.804 19.9s1.267 1.03 5.49 1.03l-.003-.002c4.168 0 7.551-3.048 7.551-7.213 0-4.164-3.38-7.2-7.548-7.2a7.732 7.732 0 0 0-3.431.7V.707h-2.06v19.9Zm15.44-6.167a7.545 7.545 0 1 0 15.09 0 7.545 7.545 0 0 0-15.09 0Zm27.578 6.857h2.687L92.8 14.22l5.54-6.637h-2.672l-4.207 5.04-4.23-5.04h-2.687l5.58 6.646-5.9 7.067h2.672l4.567-5.47 4.59 5.47ZM76.036 8.933a5.494 5.494 0 1 0-.002 10.988 5.494 5.494 0 0 0 .002-10.988Zm-17.511.35a6.117 6.117 0 0 0-3.431 1.112v8.496a6.937 6.937 0 0 0 3.43.687c3.032 0 5.49-2.119 5.49-5.148 0-3.029-2.46-5.148-5.492-5.148l.003.001ZM26.613 21.292l-7.2-7.201 6.518-6.523h2.911l-6.519 6.523 7.201 7.201h-2.91ZM17.35.706V21.29h2.059V.706H17.35Zm15.104 20.586h2.058V7.568h-2.058v13.724Z" fill="currentColor"/></svg>